<svg id="Capa_1" enable-background="new 0 0 490.876 490.876" height="512" viewBox="0 0 490.876 490.876" width="512" xmlns="http://www.w3.org/2000/svg"><g><g><circle cx="49.002" cy="299.985" fill="#ddebfd" r="14.997"/></g><g><circle cx="126.16" cy="299.985" fill="#ddebfd" r="14.997"/></g><g><circle cx="91.18" cy="357.945" fill="#ddebfd" r="14.997"/></g><g><ellipse cx="429.711" cy="361.547" fill="#ddebfd" rx="14.997" ry="14.997" transform="matrix(.943 -.334 .334 .943 -96.032 164.16)"/></g><g><circle cx="394.731" cy="419.507" fill="#ddebfd" r="14.997"/></g><g><ellipse cx="339.04" cy="361.547" fill="#ddebfd" rx="14.997" ry="14.997" transform="matrix(.922 -.386 .386 .922 -113.327 158.991)"/></g><g><circle cx="304.06" cy="419.507" fill="#ddebfd" r="14.997"/></g><g><ellipse cx="248.369" cy="361.547" fill="#ddebfd" rx="14.997" ry="14.997" transform="matrix(.952 -.307 .307 .952 -99.122 93.865)"/></g><g><circle cx="213.389" cy="419.507" fill="#ddebfd" r="14.997"/></g><g><path d="m426.303 198.66c0-28.445-23.059-51.504-51.504-51.504-9.606 0-18.593 2.638-26.29 7.217-4.771-17.442-20.723-30.266-39.679-30.266-3.102 0-6.119.354-9.024 1.005-2.115-38.319-33.849-68.741-72.696-68.741-40.215 0-72.816 32.601-72.816 72.816 0 2.786.172 5.531.476 8.236-5.714-4.488-12.913-7.173-20.743-7.173-18.568 0-33.619 15.052-33.619 33.62 0 1.069.056 2.125.153 3.169-5.012-2.037-10.488-3.169-16.231-3.169-17.193 0-32.034 10.058-38.968 24.609-4.01-1.79-8.447-2.792-13.122-2.792-17.806 0-32.24 14.433-32.24 32.238s14.434 32.239 32.239 32.239h349.973v-.539c24.931-3.595 44.091-25.038 44.091-50.965z" fill="#ddebfd"/></g><g><path d="m376.737 147.192c-10.335-.38-20.016 2.295-28.228 7.181-4.771-17.442-20.723-30.266-39.679-30.266-3.102 0-6.119.354-9.024 1.005-2.115-38.319-33.849-68.741-72.696-68.741-20.761 0-39.478 8.703-52.742 22.642 7.158-2.352 14.797-3.642 22.742-3.642 35.675 0 65.351 25.656 71.598 59.524.89 4.826 5.123 8.224 10.03 8.213h.093c12.751 0 24.144 5.803 31.688 14.911 6.061 7.318 15.61 10.696 24.957 8.982 3.62-.664 7.372-.948 11.215-.81 26.7.958 48.486 22.634 49.571 49.328.513 12.62-3.529 24.272-10.601 33.476 23.734-5.097 41.402-26.526 40.619-51.959-.83-26.887-22.662-48.855-49.543-49.844z" fill="#bed9fd"/></g><g><path d="m474.684 270.911h-33.838c-7.059-11.143-19.489-18.548-33.656-18.548-3.523 0-6.938.463-10.192 1.322-9.047-14.831-25.377-24.734-44.021-24.734-9.954 0-19.243 2.83-27.122 7.718-13.769-23.671-39.631-39.439-69.137-38.79-41.396.912-75.171 34.64-76.138 76.035-.007.278-.012.555-.015.832-.198 15.273 12.228 27.722 27.503 27.722h221.712 15.885 29.432c8.613 0 15.615-6.902 15.776-15.477.166-8.842-7.345-16.08-16.189-16.08z" fill="#9ec8fc"/></g><g><path d="m474.652 270.911h-33.806c-7.059-11.143-19.489-18.548-33.656-18.548-3.524 0-6.938.463-10.192 1.322-9.047-14.831-25.377-24.734-44.021-24.734-9.954 0-19.243 2.83-27.122 7.718-13.769-23.671-39.631-39.439-69.137-38.79-13.496.297-26.17 4.1-37.173 10.502 2.363-.273 4.753-.448 7.173-.502 24.754-.545 46.944 10.466 61.58 28.004 4.546 5.448 11.904 7.826 18.646 5.616 5.046-1.653 10.434-2.549 16.033-2.549 15.391 0 29.204 6.748 38.646 17.446 3.556 4.03 8.693 6.196 14.064 5.994.499-.019 1-.028 1.503-.028 11.679 0 22.177 5.032 29.459 13.042 3.224 3.547 7.839 5.506 12.632 5.506h25.336c7.789 0 14.703 5.457 16.029 13.133.521 3.017.125 5.874-.881 8.424h15.332c8.967 0 16.187-7.48 15.761-16.541-.4-8.486-7.71-15.015-16.206-15.015z" fill="#80b6fc"/></g></g></svg>